<svg width="200" height="200" viewBox="0 0 200 200" fill="none" xmlns="http://www.w3.org/2000/svg">
<path fill-rule="evenodd" clip-rule="evenodd" d="M46.0853 60.5925C48.6506 60.5477 51.2145 60.5925 53.7771 60.7271C61.7294 61.5481 66.1541 66.2593 67.0516 74.8607C67.1342 82.5782 67.2171 90.2954 67.2997 98.0129C67.6488 100.405 68.3932 102.649 69.5328 104.743C69.743 105.575 69.6189 106.337 69.1606 107.031C67.6106 108.276 65.9566 109.308 64.1982 110.127C63.1598 109.677 62.2914 108.959 61.5929 107.974C60.786 106.672 60.0416 105.326 59.3598 103.936C53.4369 110.773 46.3654 112.702 38.1454 109.724C32.5145 106.252 30.24 101.002 31.322 93.9747C32.2673 89.0926 34.7899 85.5479 38.8897 83.3409C43.8871 81.2601 49.0149 80.8114 54.2733 81.9948C55.771 82.2804 57.2597 82.5946 58.7395 82.937C58.8879 79.7622 58.6812 76.6215 58.1192 73.5146C56.7632 70.0599 54.3234 68.31 50.7996 68.265C47.5946 67.9669 44.4518 68.3258 41.371 69.3419C39.326 70.0515 37.2997 70.8143 35.292 71.6302C34.9265 71.5216 34.5957 71.3422 34.2995 71.0917C34.1341 69.2073 34.1341 67.3228 34.2995 65.4383C35.3434 64.2187 36.6254 63.3662 38.1454 62.8808C40.763 61.8572 43.4096 61.0945 46.0853 60.5925ZM47.3259 88.0521C51.1728 87.9177 54.9775 88.2766 58.7395 89.1289C59.5742 98.4996 55.6457 103.435 46.9537 103.936C42.3393 103.909 39.9821 101.397 39.8822 96.3976C40.1898 91.3082 42.6711 88.5261 47.3259 88.0521Z" fill="#EBEBEA"/>
<path fill-rule="evenodd" clip-rule="evenodd" d="M149.304 60.5923C153.528 60.2548 157.663 60.7484 161.71 62.0729C165.863 63.1621 167.187 65.8991 165.68 70.2839C165.034 70.5939 164.372 70.6388 163.695 70.4185C158.379 67.7595 152.92 67.3108 147.319 69.0724C144.843 70.6322 143.975 72.9205 144.714 75.9373C145.599 77.7925 146.963 79.0938 148.808 79.8409C152.515 81.2279 156.237 82.5739 159.973 83.8791C167.706 87.5029 170.146 93.6498 167.293 102.32C164.404 107.504 160.144 110.421 154.515 111.069C148.672 111.728 143.047 110.83 137.642 108.377C136.857 107.884 136.236 107.211 135.781 106.358C135.616 104.653 135.616 102.948 135.781 101.243C136.027 100.856 136.358 100.587 136.774 100.436C142.169 103.228 147.834 104.26 153.77 103.532C157.523 103.209 159.674 101.055 160.221 97.0704C160.125 95.3163 159.463 93.8806 158.237 92.7631C157.148 91.9928 155.99 91.3648 154.763 90.8786C150.42 89.6337 146.202 88.0185 142.109 86.0328C136.55 81.9389 134.854 76.4201 137.022 69.4763C138.374 66.6634 140.318 64.4648 142.853 62.8806C144.96 61.8642 147.11 61.1014 149.304 60.5923Z" fill="#EBEBEA"/>
<path fill-rule="evenodd" clip-rule="evenodd" d="M72.3863 61.9387C74.7035 61.8939 77.0195 61.9387 79.3337 62.0733C80.0485 62.41 80.5033 62.9933 80.6984 63.8232C83.5525 75.6715 86.4059 87.5167 89.2586 99.3591C91.9465 87.3345 94.6344 75.3098 97.3225 63.2847C97.5977 62.6616 98.0528 62.2578 98.6872 62.0733C101.111 61.8184 103.509 61.9081 105.883 62.3425C106.477 62.868 106.849 63.5411 106.999 64.3616C109.563 76.2069 112.127 88.0522 114.691 99.8975C117.737 88.1141 120.632 76.2687 123.375 64.3616C123.648 63.3595 124.186 62.5968 124.988 62.0733C127.221 61.8938 129.454 61.8938 131.687 62.0733C132.544 62.8926 132.668 63.8348 132.06 64.9C127.887 79.6913 123.545 94.408 119.033 109.051C118.744 109.343 118.413 109.567 118.041 109.724C115.808 109.903 113.575 109.903 111.341 109.724C110.285 109.282 109.665 108.429 109.481 107.166C106.955 95.7584 104.392 84.3618 101.789 72.9764C99.1839 84.9555 96.4546 96.8904 93.6007 108.781C93.2995 109.199 92.9273 109.512 92.4842 109.724C89.9781 109.979 87.4969 109.889 85.0405 109.455C84.3053 108.681 83.8505 107.738 83.6758 106.628C79.6143 92.2411 75.6029 77.8383 71.6419 63.4193C71.7399 62.814 71.988 62.3205 72.3863 61.9387Z" fill="#EBEBEA"/>
<path fill-rule="evenodd" clip-rule="evenodd" d="M160.718 121.434C164.299 121.28 167.855 121.505 171.387 122.107C172.351 122.306 173.261 122.665 174.116 123.184C174.609 123.539 174.899 124.033 174.985 124.665C175.25 134.844 172.066 143.503 165.432 150.644C164.718 151.319 163.933 151.453 163.075 151.048C162.909 150.599 162.909 150.15 163.075 149.702C165.093 144.658 166.664 139.453 167.789 134.087C168.732 130.333 167.449 128.314 163.943 128.03C158.564 127.699 153.229 128.013 147.939 128.972C146.502 128.194 146.46 127.252 147.815 126.146C151.815 123.518 156.115 121.947 160.718 121.434Z" fill="#FF9B13"/>
<path fill-rule="evenodd" clip-rule="evenodd" d="M25.4913 123.857C25.9943 123.813 26.4905 123.858 26.98 123.992C62.4877 145.97 100.037 151.354 139.627 140.144C146.236 138.016 152.729 135.548 159.105 132.741C161.663 133.593 162.118 135.163 160.47 137.452C145.794 148.595 129.5 155.236 111.59 157.374C78.5784 160.75 49.8377 150.475 25.3672 126.549C24.8393 125.6 24.8806 124.703 25.4913 123.857Z" fill="#FF9A0C"/>
</svg>
