<svg width="100" height="100" viewBox="0 0 100 100" fill="none" xmlns="http://www.w3.org/2000/svg">
<path fill-rule="evenodd" clip-rule="evenodd" d="M14.0569 35.0615C15.7671 35.0316 17.4763 35.0615 19.1847 35.1512C24.4862 35.6986 27.4361 38.8394 28.0344 44.5736C28.0895 49.7186 28.1447 54.8634 28.1998 60.0084C28.4325 61.6032 28.9288 63.099 29.6885 64.4953C29.8286 65.0495 29.7459 65.558 29.4404 66.0208C28.4071 66.8504 27.3044 67.5383 26.1321 68.0848C25.4399 67.7843 24.8609 67.3057 24.3953 66.649C23.8573 65.7814 23.3611 64.884 22.9065 63.9569C18.9579 68.5153 14.2436 69.8015 8.76359 67.8156C5.00965 65.5009 3.49334 62.0011 4.21468 57.3163C4.84485 54.0616 6.52657 51.6984 9.25983 50.2271C12.5914 48.8399 16.0099 48.5407 19.5155 49.3297C20.514 49.5201 21.5065 49.7296 22.493 49.9579C22.5919 47.8413 22.4541 45.7475 22.0795 43.6763C21.1755 41.3731 19.549 40.2065 17.1997 40.1765C15.0631 39.9778 12.9679 40.2171 10.914 40.8944C9.55068 41.3675 8.19979 41.876 6.86132 42.4199C6.6177 42.3476 6.39715 42.228 6.19966 42.061C6.08938 40.8047 6.08938 39.5484 6.19966 38.292C6.89561 37.479 7.75024 36.9106 8.76359 36.587C10.5087 35.9046 12.2731 35.3961 14.0569 35.0615ZM14.8839 53.3679C17.4485 53.2783 19.985 53.5176 22.493 54.0858C23.0495 60.3329 20.4304 63.6232 14.6358 63.9569C11.5595 63.9393 9.98807 62.2643 9.92149 58.9316C10.1266 55.5386 11.7807 53.6839 14.8839 53.3679Z" fill="#EBEBEA"/>
<path fill-rule="evenodd" clip-rule="evenodd" d="M82.8695 35.0615C85.6853 34.8365 88.4423 35.1656 91.1402 36.0486C93.9089 36.7747 94.7911 38.5994 93.7868 41.5226C93.3557 41.7293 92.9146 41.7592 92.4635 41.6123C88.9193 39.8396 85.2802 39.5405 81.5461 40.7149C79.8956 41.7548 79.3167 43.2803 79.8093 45.2915C80.3992 46.5283 81.3089 47.3959 82.5386 47.8939C85.0099 48.8186 87.4911 49.7159 89.9823 50.586C95.1373 53.0019 96.764 57.0999 94.862 62.88C92.9358 66.336 90.0963 68.2804 86.3432 68.7129C82.4478 69.1518 78.6984 68.5536 75.095 66.9182C74.5711 66.5892 74.1576 66.1405 73.8544 65.5721C73.744 64.4355 73.744 63.2987 73.8544 62.1621C74.0183 61.9039 74.2388 61.7244 74.516 61.6237C78.1126 63.4856 81.8895 64.1735 85.8469 63.6877C88.349 63.4727 89.7825 62.0369 90.1477 59.3803C90.0834 58.2108 89.6424 57.2537 88.8244 56.5087C88.0985 55.9952 87.3267 55.5765 86.5086 55.2524C83.6133 54.4225 80.8013 53.3456 78.0724 52.0218C74.3668 49.2926 73.2364 45.6133 74.6814 40.9841C75.5828 39.1089 76.8785 37.6432 78.5687 36.587C79.9732 35.9094 81.4067 35.4009 82.8695 35.0615Z" fill="#EBEBEA"/>
<path fill-rule="evenodd" clip-rule="evenodd" d="M31.5908 35.9591C33.1357 35.9292 34.6796 35.9591 36.2225 36.0488C36.699 36.2733 37.0022 36.6621 37.1322 37.2154C39.035 45.1143 40.9373 53.0111 42.839 60.906C44.631 52.8896 46.4229 44.8732 48.215 36.8564C48.3985 36.441 48.7018 36.1718 49.1248 36.0488C50.7404 35.8789 52.3395 35.9387 53.9218 36.2283C54.3178 36.5787 54.566 37.0273 54.6662 37.5743C56.3754 45.4712 58.0848 53.3681 59.794 61.265C61.8248 53.4094 63.7547 45.5124 65.5836 37.5743C65.7655 36.9063 66.1238 36.3978 66.6588 36.0488C68.1475 35.9292 69.6362 35.9292 71.125 36.0488C71.6963 36.595 71.779 37.2232 71.3731 37.9333C68.5916 47.7942 65.6969 57.6053 62.6888 67.3671C62.4961 67.5617 62.2756 67.7112 62.0271 67.8158C60.5384 67.9355 59.0497 67.9355 57.561 67.8158C56.8566 67.5213 56.4431 66.9529 56.3203 66.1108C54.6369 58.5056 52.9277 50.9079 51.1925 43.3175C49.456 51.3036 47.6364 59.2602 45.7338 67.1876C45.533 67.4656 45.2849 67.6749 44.9894 67.8158C43.3187 67.9861 41.6646 67.9262 40.027 67.6363C39.5369 67.1203 39.2337 66.4922 39.1172 65.7518C36.4095 56.1607 33.7353 46.5588 31.0946 36.9462C31.1599 36.5427 31.3254 36.2136 31.5908 35.9591Z" fill="#EBEBEA"/>
<path fill-rule="evenodd" clip-rule="evenodd" d="M90.4785 75.6227C92.8657 75.5199 95.2366 75.6696 97.5913 76.0714C98.2339 76.204 98.8405 76.4435 99.4108 76.7893C99.7395 77.026 99.9326 77.355 99.9898 77.7764C100.166 84.5623 98.0437 90.3353 93.6213 95.0957C93.1456 95.5456 92.6217 95.6354 92.0499 95.3649C91.9396 95.0657 91.9396 94.7667 92.0499 94.4675C93.3952 91.1053 94.4429 87.6355 95.1928 84.058C95.821 81.5551 94.9663 80.209 92.6288 80.0198C89.0425 79.7989 85.4861 80.0082 81.9596 80.648C81.0012 80.1291 80.9736 79.501 81.8769 78.7635C84.543 77.0117 87.4102 75.9648 90.4785 75.6227Z" fill="#FF9B13"/>
<path fill-rule="evenodd" clip-rule="evenodd" d="M0.327501 77.238C0.662846 77.2089 0.993675 77.2389 1.31999 77.3277C24.9918 91.9798 50.0245 95.5693 76.4182 88.0962C80.8242 86.6774 85.1526 85.0322 89.4033 83.1606C91.1085 83.7283 91.4119 84.7754 90.3131 86.3014C80.5291 93.7301 69.6668 98.1572 57.7264 99.5825C35.719 101.833 16.5585 94.9831 0.244794 79.0327C-0.107159 78.4001 -0.0796011 77.8019 0.327501 77.238Z" fill="#FF9A0C"/>
</svg>
