<svg width="200" height="200" viewBox="0 0 200 200" fill="none" xmlns="http://www.w3.org/2000/svg">
<path d="M124.757 73.1629L137.796 60.1746L138.665 54.7057C114.904 33.1843 77.1342 35.6246 55.7152 59.7976C49.7656 66.5115 45.3518 74.8818 42.998 83.5253L47.668 82.8698L73.7451 78.5863L75.7584 76.5353C87.3582 63.8453 106.971 62.1381 120.365 72.9353L124.757 73.1629Z" fill="#EA4335"/>
<path d="M156.37 83.1434C153.373 72.1495 147.22 62.2664 138.665 54.7062L120.365 72.9352C128.092 79.2247 132.494 88.6999 132.306 98.6379V101.874C141.3 101.874 148.593 109.137 148.593 118.097C148.593 127.058 141.3 134.139 132.306 134.139H99.6859L96.4832 137.603V157.062L99.6859 160.115H132.306C155.702 160.297 174.817 141.733 174.999 118.428C175.109 104.301 168.117 91.0579 156.37 83.1434Z" fill="#4285F4"/>
<path d="M67.1115 160.116H99.6856V134.139H67.1115C64.7906 134.138 62.543 133.642 60.4324 132.681L55.8111 134.093L42.6809 147.082L41.5371 151.502C48.9006 157.041 57.8848 160.155 67.1115 160.116Z" fill="#34A853"/>
<path d="M67.1115 75.8518C43.7144 75.9907 24.8613 94.9972 25.0008 118.303C25.0787 131.317 31.1807 143.568 41.5371 151.502L60.4324 132.681C52.2346 128.991 48.5918 119.381 52.2955 111.216C55.9986 103.051 65.6467 99.4219 73.8434 103.111C77.4557 104.736 80.3484 107.618 81.9803 111.216L100.876 92.3946C92.836 81.9254 80.3438 75.8046 67.1115 75.8518Z" fill="#FBBC05"/>
</svg>
