<svg width="100" height="101" viewBox="0 0 100 101" fill="none" xmlns="http://www.w3.org/2000/svg">
<path d="M66.5045 42.1948L75.1971 33.5022L75.7764 29.842C59.9362 15.4385 34.7561 17.0717 20.4768 33.2498C16.5104 37.7432 13.5678 43.3451 11.9987 49.1299L15.1119 48.6912L32.4967 45.8244L33.8389 44.4518C41.5721 35.9588 54.6475 34.8162 63.5764 42.0424L66.5045 42.1948Z" fill="#EA4335"/>
<path d="M87.58 48.8743C85.582 41.5165 81.48 34.9021 75.7765 29.8423L63.5765 42.0423C68.7281 46.2517 71.6628 52.5931 71.537 59.2443V61.4099C77.5335 61.4099 82.3952 66.2712 82.3952 72.2677C82.3952 78.2646 77.5335 83.004 71.537 83.004H49.7906L47.6554 85.322V98.3454L49.7906 100.389H71.537C87.1347 100.51 99.8777 88.0864 99.9992 72.4888C100.073 63.0345 95.4113 54.1712 87.58 48.8743Z" fill="#4285F4"/>
<path d="M28.0744 100.389H49.7904V83.0038H28.0744C26.5271 83.0034 25.0287 82.671 23.6217 82.028L20.5408 82.9733L11.7873 91.6659L11.0248 94.6245C15.9338 98.3311 21.9232 100.416 28.0744 100.389Z" fill="#34A853"/>
<path d="M28.0744 43.9943C12.4763 44.0873 -0.0924563 56.8076 0.000512446 72.4053C0.0524656 81.1154 4.12044 89.3147 11.0247 94.6244L23.6216 82.0279C18.1564 79.5588 15.7279 73.1271 18.197 67.6623C20.6658 62.1975 27.0978 59.7689 32.5622 62.2377C34.9704 63.3256 36.899 65.2545 37.9869 67.6623L50.5837 55.0658C45.224 48.0592 36.8958 43.9627 28.0744 43.9943Z" fill="#FBBC05"/>
</svg>
